<?xml version="1.0" encoding="utf-8"?>
<!-- Generator: Adobe Illustrator 23.0.6, SVG Export Plug-In . SVG Version: 6.00 Build 0)  -->
<svg version="1.1" id="Layer_1" xmlns="http://www.w3.org/2000/svg" xmlns:xlink="http://www.w3.org/1999/xlink" x="0px" y="0px"
	 viewBox="0 0 237.711731 47.468208" style="enable-background:new 0 0 237.711731 47.468208;" xml:space="preserve">
<g id="guides">
</g>
<g id="Capa_1">
	<g>
		<polygon style="fill:#EC1C24;" points="3.548757,28.739183 9.607121,28.739183 9.607121,44.28899 9.607121,44.28899 
			14.352841,44.28899 14.352841,28.739183 20.411205,28.739183 20.411205,24.801247 3.548757,24.801247 		"/>
		<path style="fill:#EC1C24;" d="M28.287079,29.546967c-2.322372,0-4.139883,0.70681-5.553501,2.019455
			c-1.413618,1.312649-2.120428,3.130157-2.120428,5.452534c0,2.322372,0.70681,4.139881,2.120428,5.45253
			c1.413618,1.312645,3.231129,2.019455,5.553501,2.019455s4.139881-0.70681,5.553501-2.019455s2.120426-3.231129,2.120426-5.45253
			c0-2.322372-0.70681-4.139881-2.019455-5.452532C32.42696,30.152802,30.609453,29.546967,28.287079,29.546967z
			 M25.863733,34.393661c0.504864-0.807781,1.312645-1.110699,2.322372-1.110699s1.817509,0.403893,2.423346,1.211674
			c0.504864,0.70681,0.70681,1.615562,0.70681,2.62529c0,1.110699-0.201946,2.019455-0.70681,2.62529
			c-0.504864,0.807781-1.312645,1.211674-2.423346,1.211674c-1.009727,0-1.817509-0.403893-2.423346-1.211674
			c-0.504864-0.70681-0.70681-1.514591-0.70681-2.62529C25.156923,35.908253,25.35887,34.999496,25.863733,34.393661z"/>
		<path style="fill:#EC1C24;" d="M44.644661,29.546967c-2.322372,0-4.139881,0.70681-5.553501,2.019455
			c-1.41362,1.312649-2.120426,3.130157-2.120426,5.452534c0,2.322372,0.70681,4.139881,2.120426,5.45253
			c1.41362,1.312645,3.231129,2.019455,5.553501,2.019455s4.139881-0.70681,5.553501-2.019455s2.120426-3.231129,2.120426-5.45253
			c0-2.322372-0.70681-4.139881-2.019455-5.452532C48.784546,30.152802,46.967037,29.546967,44.644661,29.546967z
			 M47.774818,37.018951c0,1.110699-0.201946,2.019455-0.70681,2.62529c-0.504864,0.807781-1.312645,1.211674-2.423347,1.211674
			c-1.009727,0-1.817509-0.403893-2.423347-1.211674c-0.504864-0.70681-0.70681-1.514591-0.70681-2.62529
			s0.201946-2.019455,0.70681-2.62529c0.504864-0.807781,1.312645-1.110699,2.322372-1.110699s1.817509,0.403893,2.423347,1.211674
			C47.471901,35.100471,47.774818,35.908253,47.774818,37.018951z"/>
		<rect x="54.338047" y="24.700274" style="fill:#EC1C24;" width="4.442802" height="19.588715"/>
		<path style="fill:#EC1C24;" d="M73.522865,36.21117c-0.908752-0.70681-2.019455-1.110699-3.534042-1.110699h-3.231125
			c-0.504868,0-0.90876-0.100971-1.110703-0.201946c-0.100967-0.100971-0.201942-0.403893-0.201942-0.70681
			s0.100975-0.605835,0.302925-0.605835c0.201942-0.201946,0.908752-0.201946,1.817513-0.201946h6.765167v-3.53405h-8.178787
			c-3.433079,0-5.149612,1.615564-5.149612,4.644749c0,1.716537,0.403893,2.827236,1.312645,3.433075
			c0.70681,0.504864,2.019455,0.807781,3.735992,0.807781h3.130157c0.50486,0,0.908752,0,1.110695,0.100971
			c0.302925,0.100971,0.504868,0.403893,0.504868,0.807781c0,0.302917-0.100975,0.605835-0.302925,0.70681
			c-0.302917,0.201946-0.706802,0.302917-1.312645,0.302917h-7.976852v3.534046l0,0h9.693382
			c1.312653,0,2.32238-0.504864,3.029182-1.41362c0.70681-0.908756,1.110703-2.019455,1.110703-3.231129
			C74.936485,38.129654,74.431625,37.018951,73.522865,36.21117z"/>
	</g>
	<g>
		<path style="fill-rule:evenodd;clip-rule:evenodd;" d="M5.255161,11.161601
			c-1.104144,1.20452-1.706403,2.710172-1.706403,4.516953c0,0.903393,0.100377,1.706406,0.401507,2.409042
			c0.100377,0.301128,0.30113,0.602261,0.602261,1.104143c0.60226,1.003769,1.405274,1.60603,2.509418,2.007536
			c0.702637,0.200752,1.505651,0.301128,2.609796,0.301128h4.215823v-2.910925h-3.412808c-0.602262,0-1.104145,0-1.505651-0.100376
			l-0.702637-0.200754c-0.803014-0.501884-1.204522-1.405275-1.204522-2.609797c0-1.104144,0.200753-1.806781,0.702637-2.308664
			c0.501884-0.401507,1.304898-0.602262,2.710173-0.602262h3.412809v-3.0113H9.671738
			C7.76458,9.756326,6.258929,10.258209,5.255161,11.161601z"/>
		<path style="fill-rule:evenodd;clip-rule:evenodd;" d="M20.713179,9.555573c-1.907158,0-3.312431,0.501884-4.516954,1.60603
			c-1.104143,1.104144-1.706403,2.509418-1.706403,4.416576c0,1.806782,0.602261,3.312431,1.706403,4.416574
			c1.104145,1.104145,2.609797,1.60603,4.516954,1.60603c1.907156,0,3.312431-0.501884,4.416574-1.60603
			c1.104145-1.104143,1.706406-2.609795,1.706406-4.416574c0-1.907157-0.602261-3.312432-1.706406-4.416574
			C24.02561,10.057456,22.519958,9.555573,20.713179,9.555573z M22.620335,17.786465
			c-0.401506,0.602261-1.104143,0.903391-2.007534,0.903391s-1.505651-0.30113-1.907158-0.903391
			c-0.401506-0.501884-0.602261-1.304897-0.602261-2.208288c0-0.90339,0.200754-1.606028,0.602261-2.208287
			c0.401506-0.602262,1.104145-0.903391,1.907158-0.903391s1.505651,0.30113,1.907158,1.003768
			c0.401506,0.602261,0.602261,1.304897,0.602261,2.208287C23.222597,16.481567,23.021843,17.184204,22.620335,17.786465z"/>
		<path style="fill-rule:evenodd;clip-rule:evenodd;" d="M37.977974,10.659718
			c-0.803013-0.602262-2.007534-0.903391-3.61356-0.903391h-5.721472v11.744078h3.513182v-8.732776h2.10791
			c0.702641,0,1.104145,0.100377,1.304897,0.30113c0.200756,0.200753,0.301128,0.702638,0.301128,1.405274v7.026371h3.513187
			v-7.327501C39.282871,12.466497,38.780987,11.362354,37.977974,10.659718z"/>
		<path style="fill-rule:evenodd;clip-rule:evenodd;" d="M51.026951,14.975917
			c-0.702637-0.602261-1.606026-0.90339-2.910927-0.90339h-2.609795c-0.401508,0-0.702637-0.100377-0.903393-0.200753
			c-0.100372-0.100377-0.200752-0.30113-0.200752-0.602262c0-0.30113,0.100376-0.501884,0.200752-0.501884
			c0.200756-0.100377,0.702641-0.200753,1.505653-0.200753h5.420345v-2.81055h-6.524487
			c-2.810551,0-4.115448,1.304898-4.115448,3.814317c0,1.405272,0.301132,2.308664,1.003769,2.81055
			c0.602261,0.401506,1.606026,0.602261,3.011303,0.602261h2.509418c0.401508,0,0.702637,0,0.903393,0.100376
			c0.301128,0.100378,0.401508,0.401508,0.401508,0.702639s-0.100376,0.501884-0.301132,0.602261
			c-0.301128,0.200754-0.602257,0.30113-1.003765,0.30113h-6.424114v2.810547h7.829384
			c1.003769,0,1.806782-0.401506,2.509418-1.104143c0.602261-0.702639,0.903393-1.60603,0.903393-2.609797
			C52.231472,16.481567,51.829964,15.578176,51.026951,14.975917z"/>
	</g>
	<rect x="53.737461" y="0.192978" width="21.299999" height="21.299999"/>
	<rect x="76.548759" y="22.988649" width="21.299995" height="21.300003"/>
	<rect x="76.548782" y="10.248172" style="fill:#EC1C24;" width="11.25" height="11.250001"/>
	<g>
		<path d="M100.842697,9.905285c0-3.319232-2.690765-6.01-6.010002-6.01H76.548759v1.5h18.283936
			c2.490807,0,4.510002,2.019196,4.510002,4.51v28.765003h1.5V9.905285z"/>
		<path d="M6.162795,45.795315c-2.493034,0-4.514038-2.021004-4.514038-4.514038V9.909323
			c0-2.493033,2.021004-4.514038,4.514038-4.514038h46.068661v-1.5H6.158757c-3.319232,0-6.01,2.690768-6.01,6.01v31.375992
			c0,3.321426,2.692549,6.013977,6.013977,6.013977h86.067062v-1.499939H6.162795z"/>
	</g>
	<rect x="73.137497" y="22.988649" style="fill:#EC1C24;" width="1.899963" height="1.9"/>
	<path style="fill:#EC1C24;" d="M231.533203,47.295891H129.947098c-3.319237,0-6.010002-2.690769-6.010002-6.009998V9.904646
		c0-3.319232,2.690765-6.01,6.010002-6.01h101.586105c3.319229,0,6.01001,2.690768,6.01001,6.01v31.381247
		C237.543213,44.605122,234.852432,47.295891,231.533203,47.295891z"/>
	<g>
		<g>
			<path style="fill:#FFFFFF;" d="M133.761154,12.347517h-3.834v-1.117201h8.953201v1.117201h-3.834v11.8764h-1.285202V12.347517z"
				/>
			<path style="fill:#FFFFFF;" d="M145.768951,11.007617c3.909195,0,5.751999,3.2012,5.714905,6.719699
				c-0.037109,3.9844-1.972702,6.721201-5.714905,6.721201s-5.677704-2.736801-5.714798-6.721201
				C140.017044,14.208817,141.859756,11.007617,145.768951,11.007617z M141.338348,17.727316
				c0,2.7549,1.377899,5.603601,4.430603,5.603601c3.052795,0,4.430695-2.848701,4.430695-5.603601
				c0-2.754799-1.377899-5.603498-4.430695-5.603498C142.716248,12.123816,141.338348,14.972517,141.338348,17.727316z"/>
			<path style="fill:#FFFFFF;" d="M154.090256,11.230316h1.991196l4.748093,11.430601l4.76561-11.430601h1.841797v12.993601
				h-1.283203V12.515416h-0.038101l-4.727493,11.708501h-1.099609l-4.876999-11.708501h-0.037094v11.708501h-1.284195V11.230316z"/>
			<path style="fill:#FFFFFF;" d="M170.640045,11.230316h6.366211v1.117201h-5.083008v4.6357h4.822296v1.116199h-4.822296v5.007799
				h5.306702v1.116701h-6.589905V11.230316z"/>
			<path style="fill:#FFFFFF;" d="M188.864655,12.682417c-0.819305-0.4277-1.992203-0.5586-2.904312-0.5586
				c-3.369095,0-5.267487,2.3828-5.267487,5.603499c0,3.276402,1.841797,5.603601,5.267487,5.603601
				c0.856522,0,2.160202-0.111401,2.904312-0.558601l0.074203,1.117201c-0.707001,0.4282-2.159103,0.559-2.978516,0.559
				c-4.095688,0-6.552689-2.699699-6.552689-6.721201c0-3.946199,2.531204-6.719699,6.552689-6.719699
				c0.763702,0,2.308609,0.1299,2.978516,0.483399L188.864655,12.682417z"/>
			<path style="fill:#FFFFFF;" d="M196.329544,11.230316h1.451111l5.157288,12.993601h-1.34079l-1.3965-3.4809h-6.552795
				l-1.395508,3.4809h-1.246994L196.329544,11.230316z M196.962341,12.459817l-2.830093,7.166999h5.64061L196.962341,12.459817z"/>
			<path style="fill:#FFFFFF;" d="M204.612747,11.230316h1.620117l6.608383,11.430601h0.037094V11.230316h1.285202v12.993601
				h-1.732498l-6.496094-11.2065h-0.037094v11.2065h-1.28511V11.230316z"/>
			<path style="fill:#FFFFFF;" d="M217.029755,11.230316h1.284103v12.993601h-1.284103V11.230316z"/>
			<path style="fill:#FFFFFF;" d="M230.246552,12.682417c-0.819397-0.4277-1.992203-0.5586-2.904297-0.5586
				c-3.369202,0-5.2686,2.3828-5.2686,5.603499c0,3.276402,1.843796,5.603601,5.2686,5.603601
				c0.8564,0,2.159088-0.111401,2.904297-0.558601l0.074203,1.117201c-0.708008,0.4282-2.15921,0.559-2.9785,0.559
				c-4.094803,0-6.552811-2.699699-6.552811-6.721201c0-3.946199,2.532303-6.719699,6.552811-6.719699
				c0.762695,0,2.308609,0.1299,2.9785,0.483399L230.246552,12.682417z"/>
		</g>
		<g>
			<path style="fill:#FFFFFF;" d="M131.25235,27.983717h1.185608v5.308603h6.065399v-5.308603h1.185501v11.992205h-1.185501
				v-5.652401h-6.065399v5.652401h-1.185608V27.983717z"/>
			<path style="fill:#FFFFFF;" d="M142.524857,27.983717h1.185501v11.992205h-1.185501V27.983717z"/>
			<path style="fill:#FFFFFF;" d="M146.16745,38.446621c0.705002,0.4473,1.529297,0.705101,2.646408,0.705101
				c1.477585,0,2.697296-0.755901,2.697296-2.4571c0-2.3535-5.498001-2.646503-5.498001-5.789005
				c0-1.9258,1.683594-3.128901,3.796799-3.128901c0.584,0,1.529297,0.085901,2.353592,0.3964l-0.188492,1.0821
				c-0.532196-0.292999-1.374008-0.4473-2.182602-0.4473c-1.236404,0-2.593796,0.5156-2.593796,2.0625
				c0,2.404303,5.498093,2.421904,5.498093,5.927702c0,2.421902-2.079102,3.3848-3.934601,3.3848
				c-1.168991,0-2.079102-0.2402-2.71489-0.515598L146.16745,38.446621z"/>
			<path style="fill:#FFFFFF;" d="M155.085342,27.983717h2.955109c2.251999,0,3.711899,1.1348,3.711899,3.4023
				c0,2.232502-1.683594,3.402405-3.830994,3.402405h-1.650406v5.1875h-1.185608V27.983717z M156.27095,33.757122h0.825195
				c1.787109,0,3.470718-0.207001,3.470718-2.371105c0-1.5117-0.858414-2.371099-2.371109-2.371099h-1.924805V33.757122z"/>
			<path style="fill:#FFFFFF;" d="M166.065857,27.983717h1.339798l4.759796,11.992205h-1.237305l-1.288101-3.212902h-6.048798
				l-1.288101,3.212902h-1.151398L166.065857,27.983717z M166.649857,29.118517l-2.611313,6.613203h5.206009L166.649857,29.118517z"
				/>
			<path style="fill:#FFFFFF;" d="M173.712357,27.983717h1.496094l6.098602,10.548803h0.034195V27.983715h1.185501v11.992207
				h-1.597595l-5.996109-10.341805h-0.035187v10.341805h-1.185501V27.983717z"/>
			<path style="fill:#FFFFFF;" d="M185.174255,27.983717h1.185501v11.992205h-1.185501V27.983717z"/>
			<path style="fill:#FFFFFF;" d="M192.803146,27.983717h1.340805l4.758804,11.992205h-1.237305l-1.289108-3.212902h-6.046799
				l-1.289093,3.212902h-1.151398L192.803146,27.983717z M193.387146,29.118517l-2.611282,6.613203h5.205994L193.387146,29.118517z"
				/>
			<path style="fill:#FFFFFF;" d="M204.798248,38.446621c0.704102,0.4473,1.529297,0.705101,2.645493,0.705101
				c1.4776,0,2.698303-0.755901,2.698303-2.4571c0-2.3535-5.498093-2.646503-5.498093-5.789005
				c0-1.9258,1.683594-3.128901,3.796906-3.128901c0.584,0,1.529297,0.085901,2.353485,0.3964l-0.189392,1.0821
				c-0.532303-0.292999-1.374084-0.4473-2.181702-0.4473c-1.236298,0-2.593704,0.5156-2.593704,2.0625
				c0,2.404303,5.498001,2.421904,5.498001,5.927702c0,2.421902-2.080093,3.3848-3.935501,3.3848
				c-1.167999,0-2.078186-0.2402-2.71489-0.515598L204.798248,38.446621z"/>
			<path style="fill:#FFFFFF;" d="M213.922241,38.53252h1.391617v1.443401h-1.391617V38.53252z"/>
			<path style="fill:#FFFFFF;" d="M222.153748,27.983717h1.339798l4.759796,11.992205h-1.238297l-1.288101-3.212902h-6.047791
				l-1.289108,3.212902h-1.150391L222.153748,27.983717z M222.737747,29.118517l-2.611404,6.613203h5.205109L222.737747,29.118517z"
				/>
			<path style="fill:#FFFFFF;" d="M230.161545,38.53252h1.391602v1.443401h-1.391602V38.53252z"/>
		</g>
	</g>
	<polygon style="fill:#EC1C24;" points="123.939026,25.245291 112.689743,25.245291 112.689743,5.405124 112.089767,5.405124 
		112.089767,45.795364 112.689743,45.795364 112.689743,25.945242 123.939026,25.945242 	"/>
</g>
</svg>
